<?xml version="1.0" standalone="no"?>
<!DOCTYPE svg PUBLIC "-//W3C//DTD SVG 20010904//EN"
 "http://www.w3.org/TR/2001/REC-SVG-20010904/DTD/svg10.dtd">
<svg version="1.0" xmlns="http://www.w3.org/2000/svg"
 width="700.000000pt" height="700.000000pt" viewBox="0 0 700.000000 700.000000"
 preserveAspectRatio="xMidYMid meet">
<metadata>
Created by potrace 1.11, written by Peter Selinger 2001-2013
</metadata>
<g transform="translate(0.000000,700.000000) scale(0.100000,-0.100000)"
fill="#000000" stroke="none">
<path d="M5066 6923 c-1 -1 -953 -4 -2116 -7 -1163 -4 -2144 -9 -2180 -12
-155 -13 -268 -73 -350 -186 -30 -41 -68 -117 -75 -148 -1 -8 -8 -33 -13 -55
-15 -57 -22 -147 -37 -472 -9 -194 -16 -345 -30 -628 -15 -313 -23 -474 -30
-640 -3 -66 -7 -158 -10 -205 -3 -47 -7 -141 -10 -210 -3 -69 -8 -165 -10
-215 -2 -49 -7 -144 -10 -210 -3 -66 -7 -160 -10 -210 -5 -84 -7 -131 -20
-425 -3 -63 -7 -155 -10 -205 -2 -49 -7 -142 -10 -205 -3 -63 -8 -158 -10
-210 -3 -52 -7 -151 -10 -220 -3 -69 -8 -159 -10 -200 -4 -75 -10 -198 -20
-405 -3 -60 -8 -157 -11 -215 -9 -169 -12 -221 -13 -293 -1 -52 -4 -66 -13
-61 -9 5 -9 2 1 -9 10 -13 11 -20 2 -31 -7 -8 -8 -16 -4 -19 5 -3 7 -23 6 -44
-6 -73 -5 -228 2 -263 11 -64 37 -144 62 -194 13 -26 22 -54 19 -62 -3 -7 0
-11 7 -9 7 3 27 -17 44 -43 32 -47 108 -129 154 -167 64 -53 214 -136 289
-160 14 -4 31 -15 38 -24 8 -9 10 -10 6 -2 -5 10 1 12 27 6 19 -4 36 -10 39
-14 6 -7 45 -10 217 -15 72 -2 137 -7 144 -11 8 -5 10 -4 5 3 -9 15 -1 15 26
1 11 -6 18 -7 15 -2 -4 5 7 10 23 10 17 0 27 -5 23 -10 -4 -6 -1 -7 8 -1 20
13 332 12 341 -1 5 -7 8 -7 8 1 0 6 18 11 41 12 28 1 38 -2 33 -10 -5 -7 -3
-8 7 -2 23 14 141 16 132 1 -5 -9 -4 -9 8 0 20 16 262 15 252 -1 -4 -7 -1 -6
8 1 11 9 63 12 172 12 86 0 161 2 167 6 5 3 10 1 10 -5 0 -6 4 -9 9 -5 13 8
209 10 217 3 3 -4 16 -3 28 1 11 5 26 9 31 9 6 0 20 -4 31 -9 12 -4 25 -5 28
-2 9 9 157 9 163 0 2 -4 9 -4 15 -1 17 11 158 10 162 -1 3 -5 5 -4 5 3 1 10 6
10 22 1 12 -6 19 -7 16 -2 -3 5 21 9 54 8 32 0 59 -4 59 -8 0 -5 5 -5 12 -1
19 12 88 12 88 0 0 -8 3 -8 8 -1 10 15 315 16 324 1 6 -8 8 -8 8 0 0 9 149 12
553 13 303 1 705 3 892 5 227 1 345 -1 354 -8 9 -7 12 -7 9 -1 -4 7 61 10 185
11 214 2 238 4 293 30 65 31 107 89 119 164 8 51 8 53 1 96 -3 18 -8 63 -10
100 -3 38 -8 81 -11 95 -3 15 -6 65 -7 113 -2 49 -7 86 -13 86 -5 0 -3 5 5 10
8 5 10 10 5 10 -11 0 -13 14 -20 117 -1 28 -6 56 -10 62 -3 6 -1 11 6 11 7 0
8 4 2 13 -5 6 -11 32 -12 57 -2 25 -4 47 -6 50 -2 4 -7 49 -11 101 l-6 96 38
0 c132 0 161 24 158 128 -1 33 -4 67 -7 75 -3 8 -8 49 -11 90 -3 41 -8 86 -10
100 -3 14 -7 55 -10 93 l-5 67 257 1 c141 0 276 2 300 4 160 13 256 118 261
285 1 37 -5 125 -14 195 -9 71 -18 152 -21 179 -2 28 -11 105 -19 171 -15 115
-19 156 -31 255 -3 25 -9 79 -14 120 -5 41 -11 96 -14 123 -4 26 -8 68 -12 95
-3 26 -9 81 -14 122 -5 41 -12 99 -15 129 -12 100 -42 175 -90 229 -25 28 -44
54 -43 59 2 8 -9 118 -16 163 -5 28 -36 268 -41 317 -2 17 -6 50 -9 72 -3 23
-8 60 -11 84 -3 23 -10 74 -15 112 -6 39 -12 90 -15 115 -3 25 -7 61 -10 80
-2 19 -7 55 -10 80 -16 137 -31 183 -79 244 -33 42 -110 84 -164 88 -44 3 -39
-8 -57 133 -12 90 -14 109 -24 185 -6 41 -13 93 -15 115 -3 22 -8 59 -11 83
-3 23 -7 59 -10 80 -13 105 -27 210 -30 232 -3 14 -7 54 -11 90 -15 152 -69
248 -164 289 -40 17 -76 23 -168 26 -141 4 -129 2 -129 18 -2 52 -16 179 -24
208 -11 44 -60 94 -107 110 -27 9 -477 20 -486 12z"/>
<path d="M6213 1715 c0 -8 4 -12 9 -9 5 3 6 10 3 15 -9 13 -12 11 -12 -6z"/>
<path d="M6059 1448 c-5 -18 -6 -38 -1 -34 7 8 12 36 6 36 -2 0 -4 -1 -5 -2z"/>
<path d="M6010 1380 c0 -5 5 -10 11 -10 5 0 7 5 4 10 -3 6 -8 10 -11 10 -2 0
-4 -4 -4 -10z"/>
<path d="M6059 1388 c-5 -18 -6 -38 -1 -34 7 8 12 36 6 36 -2 0 -4 -1 -5 -2z"/>
<path d="M6156 1362 c-3 -5 1 -9 9 -9 8 0 12 4 9 9 -3 4 -7 8 -9 8 -2 0 -6 -4
-9 -8z"/>
<path d="M6010 1340 c0 -5 5 -10 11 -10 5 0 7 5 4 10 -3 6 -8 10 -11 10 -2 0
-4 -4 -4 -10z"/>
<path d="M6033 1265 c0 -8 4 -12 9 -9 5 3 6 10 3 15 -9 13 -12 11 -12 -6z"/>
<path d="M6040 1180 c-12 -7 -10 -9 7 -7 12 0 19 5 17 9 -6 10 -6 10 -24 -2z"/>
<path d="M6110 1179 c0 -5 5 -7 10 -4 6 3 10 8 10 11 0 2 -4 4 -10 4 -5 0 -10
-5 -10 -11z"/>
<path d="M6110 1141 c0 -6 4 -13 10 -16 6 -3 7 1 4 9 -7 18 -14 21 -14 7z"/>
<path d="M6073 1115 c0 -8 4 -12 9 -9 5 3 6 10 3 15 -9 13 -12 11 -12 -6z"/>
<path d="M6307 1079 c7 -7 15 -10 18 -7 3 3 -2 9 -12 12 -14 6 -15 5 -6 -5z"/>
<path d="M6115 960 c-3 -5 -1 -10 4 -10 6 0 11 5 11 10 0 6 -2 10 -4 10 -3 0
-8 -4 -11 -10z"/>
<path d="M6105 640 c-3 -6 1 -7 9 -4 18 7 21 14 7 14 -6 0 -13 -4 -16 -10z"/>
<path d="M6147 599 c7 -7 15 -10 18 -7 3 3 -2 9 -12 12 -14 6 -15 5 -6 -5z"/>
<path d="M2793 205 c0 -8 4 -12 9 -9 5 3 6 10 3 15 -9 13 -12 11 -12 -6z"/>
<path d="M1989 163 c-13 -16 -12 -17 4 -4 16 13 21 21 13 21 -2 0 -10 -8 -17
-17z"/>
<path d="M940 166 c0 -2 8 -10 18 -17 15 -13 16 -12 3 4 -13 16 -21 21 -21 13z"/>
<path d="M1424 162 c4 -3 14 -7 22 -8 9 -1 13 0 10 4 -4 3 -14 7 -22 8 -9 1
-13 0 -10 -4z"/>
<path d="M4146 162 c-2 -4 4 -8 14 -8 10 0 16 4 14 8 -3 4 -9 8 -14 8 -5 0
-11 -4 -14 -8z"/>
<path d="M790 146 c0 -2 7 -7 16 -10 8 -3 12 -2 9 4 -6 10 -25 14 -25 6z"/>
<path d="M2396 98 c3 -5 10 -6 15 -3 13 9 11 12 -6 12 -8 0 -12 -4 -9 -9z"/>
<path d="M2876 98 c3 -5 10 -6 15 -3 13 9 11 12 -6 12 -8 0 -12 -4 -9 -9z"/>
<path d="M4636 102 c-3 -5 1 -9 9 -9 8 0 12 4 9 9 -3 4 -7 8 -9 8 -2 0 -6 -4
-9 -8z"/>
<path d="M4946 102 c-3 -5 1 -9 9 -9 8 0 12 4 9 9 -3 4 -7 8 -9 8 -2 0 -6 -4
-9 -8z"/>
</g>
</svg>
